<svg width="431" height="431" viewBox="0 0 431 431" fill="none" xmlns="http://www.w3.org/2000/svg">
<g clip-path="url(#clip0_3_15)">
<rect x="49" y="115" width="243" height="205" fill="#738C8C" fill-opacity="0.33"/>
<path fill-rule="evenodd" clip-rule="evenodd" d="M335.875 215.937C335.875 308.687 260.687 383.875 167.937 383.875C75.1881 383.875 0 308.687 0 215.937C0 125.109 72.1054 51.1225 162.197 48.0963L162.065 48H167.924H167.937H167.95L431 48L314.333 133.59C328.049 157.921 335.875 186.015 335.875 215.937ZM68.1144 122.5C57.8972 122.5 49.6144 130.783 49.6144 141C49.6144 151.217 57.8972 159.5 68.1144 159.5H266.586C276.803 159.5 285.086 151.217 285.086 141C285.086 130.783 276.803 122.5 266.586 122.5H68.1144ZM49.6144 216C49.6144 205.783 57.8972 197.5 68.1144 197.5H266.586C276.803 197.5 285.086 205.783 285.086 216C285.086 226.217 276.803 234.5 266.586 234.5H68.1144C57.8972 234.5 49.6144 226.217 49.6144 216ZM68.1144 272.5C57.8972 272.5 49.6144 280.783 49.6144 291C49.6144 301.217 57.8972 309.5 68.1144 309.5H266.586C276.803 309.5 285.086 301.217 285.086 291C285.086 280.783 276.803 272.5 266.586 272.5H68.1144Z" fill="#738C8C"/>
</g>
<defs>
<clipPath id="clip0_3_15">
<rect width="431" height="431" fill="white"/>
</clipPath>
</defs>
</svg>
